<svg width="184" height="30" viewBox="0 0 184 30" fill="none" xmlns="http://www.w3.org/2000/svg">
<path d="M54.08 23L54.06 12.8L49 21.3H48.08L43.02 12.86V23H41.1V9H42.74L48.58 18.84L54.34 9H55.98L56 23H54.08ZM69.5016 17.76C69.5016 17.9067 69.4882 18.1 69.4616 18.34H60.8616C60.9816 19.2733 61.3882 20.0267 62.0816 20.6C62.7882 21.16 63.6616 21.44 64.7016 21.44C65.9682 21.44 66.9882 21.0133 67.7616 20.16L68.8216 21.4C68.3416 21.96 67.7416 22.3867 67.0216 22.68C66.3149 22.9733 65.5216 23.12 64.6416 23.12C63.5216 23.12 62.5282 22.8933 61.6616 22.44C60.7949 21.9733 60.1216 21.3267 59.6416 20.5C59.1749 19.6733 58.9416 18.74 58.9416 17.7C58.9416 16.6733 59.1682 15.7467 59.6216 14.92C60.0882 14.0933 60.7216 13.4533 61.5216 13C62.3349 12.5333 63.2482 12.3 64.2616 12.3C65.2749 12.3 66.1749 12.5333 66.9616 13C67.7616 13.4533 68.3816 14.0933 68.8216 14.92C69.2749 15.7467 69.5016 16.6933 69.5016 17.76ZM64.2616 13.92C63.3416 13.92 62.5682 14.2 61.9416 14.76C61.3282 15.32 60.9682 16.0533 60.8616 16.96H67.6616C67.5549 16.0667 67.1882 15.34 66.5616 14.78C65.9482 14.2067 65.1816 13.92 64.2616 13.92ZM78.1277 22.38C77.8477 22.62 77.501 22.8067 77.0877 22.94C76.6743 23.06 76.2477 23.12 75.8077 23.12C74.741 23.12 73.9143 22.8333 73.3277 22.26C72.741 21.6867 72.4477 20.8667 72.4477 19.8V13.98H70.6477V12.4H72.4477V10.08H74.3677V12.4H77.4077V13.98H74.3677V19.72C74.3677 20.2933 74.5077 20.7333 74.7877 21.04C75.081 21.3467 75.4943 21.5 76.0277 21.5C76.6143 21.5 77.1143 21.3333 77.5277 21L78.1277 22.38ZM84.3089 12.3C85.7756 12.3 86.8956 12.66 87.6689 13.38C88.4556 14.1 88.8489 15.1733 88.8489 16.6V23H87.0289V21.6C86.7089 22.0933 86.2489 22.4733 85.6489 22.74C85.0622 22.9933 84.3622 23.12 83.5489 23.12C82.3622 23.12 81.4089 22.8333 80.6889 22.26C79.9822 21.6867 79.6289 20.9333 79.6289 20C79.6289 19.0667 79.9689 18.32 80.6489 17.76C81.3289 17.1867 82.4089 16.9 83.8889 16.9H86.9289V16.52C86.9289 15.6933 86.6889 15.06 86.2089 14.62C85.7289 14.18 85.0222 13.96 84.0889 13.96C83.4622 13.96 82.8489 14.0667 82.2489 14.28C81.6489 14.48 81.1422 14.7533 80.7289 15.1L79.9289 13.66C80.4756 13.22 81.1289 12.8867 81.8889 12.66C82.6489 12.42 83.4556 12.3 84.3089 12.3ZM83.8689 21.64C84.6022 21.64 85.2356 21.48 85.7689 21.16C86.3022 20.8267 86.6889 20.36 86.9289 19.76V18.28H83.9689C82.3422 18.28 81.5289 18.8267 81.5289 19.92C81.5289 20.4533 81.7356 20.8733 82.1489 21.18C82.5622 21.4867 83.1356 21.64 83.8689 21.64ZM92.402 8.16H94.322V23H92.402V8.16ZM118.048 9L113.368 23H111.268L107.448 11.82L103.628 23H101.488L96.808 9H98.868L102.648 20.38L106.588 9H108.428L112.288 20.44L116.148 9H118.048ZM128.994 17.76C128.994 17.9067 128.98 18.1 128.954 18.34H120.354C120.474 19.2733 120.88 20.0267 121.574 20.6C122.28 21.16 123.154 21.44 124.194 21.44C125.46 21.44 126.48 21.0133 127.254 20.16L128.314 21.4C127.834 21.96 127.234 22.3867 126.514 22.68C125.807 22.9733 125.014 23.12 124.134 23.12C123.014 23.12 122.02 22.8933 121.154 22.44C120.287 21.9733 119.614 21.3267 119.134 20.5C118.667 19.6733 118.434 18.74 118.434 17.7C118.434 16.6733 118.66 15.7467 119.114 14.92C119.58 14.0933 120.214 13.4533 121.014 13C121.827 12.5333 122.74 12.3 123.754 12.3C124.767 12.3 125.667 12.5333 126.454 13C127.254 13.4533 127.874 14.0933 128.314 14.92C128.767 15.7467 128.994 16.6933 128.994 17.76ZM123.754 13.92C122.834 13.92 122.06 14.2 121.434 14.76C120.82 15.32 120.46 16.0533 120.354 16.96H127.154C127.047 16.0667 126.68 15.34 126.054 14.78C125.44 14.2067 124.674 13.92 123.754 13.92ZM137.28 12.3C138.307 12.3 139.227 12.5267 140.04 12.98C140.853 13.4333 141.487 14.0667 141.94 14.88C142.407 15.6933 142.64 16.6333 142.64 17.7C142.64 18.7667 142.407 19.7133 141.94 20.54C141.487 21.3533 140.853 21.9867 140.04 22.44C139.227 22.8933 138.307 23.12 137.28 23.12C136.493 23.12 135.773 22.9667 135.12 22.66C134.467 22.3533 133.927 21.9067 133.5 21.32V23H131.66V8.16H133.58V14C134.007 13.44 134.54 13.02 135.18 12.74C135.82 12.4467 136.52 12.3 137.28 12.3ZM137.12 21.44C137.8 21.44 138.407 21.2867 138.94 20.98C139.487 20.66 139.913 20.22 140.22 19.66C140.54 19.0867 140.7 18.4333 140.7 17.7C140.7 16.9667 140.54 16.32 140.22 15.76C139.913 15.1867 139.487 14.7467 138.94 14.44C138.407 14.1333 137.8 13.98 137.12 13.98C136.453 13.98 135.847 14.1333 135.3 14.44C134.753 14.7467 134.327 15.1867 134.02 15.76C133.713 16.32 133.56 16.9667 133.56 17.7C133.56 18.4333 133.713 19.0867 134.02 19.66C134.327 20.22 134.753 20.66 135.3 20.98C135.847 21.2867 136.453 21.44 137.12 21.44ZM145.573 9H151.473C152.953 9 154.266 9.29333 155.413 9.88C156.559 10.4667 157.446 11.2933 158.073 12.36C158.713 13.4133 159.033 14.6267 159.033 16C159.033 17.3733 158.713 18.5933 158.073 19.66C157.446 20.7133 156.559 21.5333 155.413 22.12C154.266 22.7067 152.953 23 151.473 23H145.573V9ZM151.353 21.26C152.486 21.26 153.479 21.04 154.333 20.6C155.199 20.16 155.866 19.5467 156.333 18.76C156.799 17.96 157.033 17.04 157.033 16C157.033 14.96 156.799 14.0467 156.333 13.26C155.866 12.46 155.199 11.84 154.333 11.4C153.479 10.96 152.486 10.74 151.353 10.74H147.573V21.26H151.353ZM171.396 17.76C171.396 17.9067 171.383 18.1 171.356 18.34H162.756C162.876 19.2733 163.283 20.0267 163.976 20.6C164.683 21.16 165.556 21.44 166.596 21.44C167.863 21.44 168.883 21.0133 169.656 20.16L170.716 21.4C170.236 21.96 169.636 22.3867 168.916 22.68C168.209 22.9733 167.416 23.12 166.536 23.12C165.416 23.12 164.423 22.8933 163.556 22.44C162.689 21.9733 162.016 21.3267 161.536 20.5C161.069 19.6733 160.836 18.74 160.836 17.7C160.836 16.6733 161.063 15.7467 161.516 14.92C161.983 14.0933 162.616 13.4533 163.416 13C164.229 12.5333 165.143 12.3 166.156 12.3C167.169 12.3 168.069 12.5333 168.856 13C169.656 13.4533 170.276 14.0933 170.716 14.92C171.169 15.7467 171.396 16.6933 171.396 17.76ZM166.156 13.92C165.236 13.92 164.463 14.2 163.836 14.76C163.223 15.32 162.863 16.0533 162.756 16.96H169.556C169.449 16.0667 169.083 15.34 168.456 14.78C167.843 14.2067 167.076 13.92 166.156 13.92ZM183.247 12.4L178.607 23H176.647L172.007 12.4H174.007L177.647 20.9L181.367 12.4H183.247Z" fill="url(#paint0_linear)"/>
<g clip-path="url(#clip0)">
<path d="M13.6224 25.9705H13.5973C13.2171 25.9705 12.9089 26.2287 12.9089 26.5473C12.9089 26.8658 13.2171 27.124 13.5973 27.124H13.6224C14.0027 27.124 14.3108 26.8658 14.3108 26.5473C14.3108 26.2287 14.0027 25.9705 13.6224 25.9705Z" fill="url(#paint1_linear)"/>
<path d="M17.5607 25.9705H17.5353C17.1553 25.9705 16.8469 26.2287 16.8469 26.5473C16.8469 26.8658 17.1553 27.124 17.5353 27.124H17.5607C17.9407 27.124 18.2491 26.8658 18.2491 26.5473C18.2491 26.2287 17.9407 25.9705 17.5607 25.9705Z" fill="url(#paint2_linear)"/>
<path d="M21.4967 25.9492H21.4714C21.0914 25.9492 20.783 26.2074 20.783 26.526C20.783 26.8446 21.0914 27.103 21.4714 27.103H21.4967C21.8767 27.103 22.1851 26.8446 22.1851 26.526C22.1851 26.2074 21.877 25.9492 21.4967 25.9492Z" fill="url(#paint3_linear)"/>
<path d="M31.1268 26.0045L26.6714 24.6617C26.4599 24.1755 25.9029 23.8274 25.2503 23.8274H25.1579V22.6622C25.1579 22.2215 25.2025 21.9734 26.2095 21.163C27.4495 20.167 27.9929 19.4844 27.9929 17.1299C27.9929 16.2126 27.9927 14.0266 26.7197 12.6515V2.56995C26.7197 1.12131 25.3138 -0.0572815 23.5856 -0.0572815C21.8574 -0.0572815 20.4515 1.12131 20.4515 2.56995V7.20602C19.9511 6.93822 19.3527 6.79325 18.7217 6.79325C17.7847 6.79325 16.841 7.1181 16.2316 7.75035C15.6268 7.15837 14.712 6.85365 13.8027 6.85365C13.187 6.85365 12.5685 6.99371 12.0454 7.26777V6.04868C12.0454 5.18375 11.7632 4.46179 11.2291 3.96108C10.734 3.49707 10.0464 3.24158 9.29342 3.24158C7.8803 3.24158 6.41858 4.15796 6.41858 5.69117V13.552C6.41858 13.8706 6.72673 14.1288 7.10698 14.1288C7.48723 14.1288 7.79538 13.8706 7.79538 13.552V5.69117C7.79538 4.87993 8.55695 4.39512 9.29342 4.39512C9.54522 4.39512 9.90732 4.45328 10.2024 4.73003C10.5073 5.01573 10.6686 5.47169 10.6686 6.04868V13.7552C10.6686 15.2038 12.0745 16.3824 13.8027 16.3824C14.7782 16.3824 15.6508 16.007 16.226 15.4193C16.7828 15.9766 17.672 16.3712 18.8667 16.3712H20.7097C21.7268 16.3712 21.7268 16.9359 21.7268 17.1771V18.0966C21.7268 18.4152 22.035 18.6734 22.4152 18.6734C22.7952 18.6734 23.1034 18.4152 23.1034 18.0966V17.1771C23.1034 15.9867 22.1637 15.2175 20.7097 15.2175H18.8667C17.5935 15.2175 16.9812 14.5857 16.9256 13.9666C16.9326 13.8968 16.9369 13.8263 16.9369 13.7552V13.7062C16.9804 13.4467 17.1227 13.2106 17.3516 13.0296C17.6936 12.7592 18.2127 12.6162 18.8531 12.6162H23.8372C25.759 12.714 26.6164 14.1069 26.6164 17.1299C26.6164 19.1573 26.2239 19.5535 25.2562 20.3308C24.1256 21.2407 23.7811 21.7852 23.7811 22.6622V23.8274H10.7386C10.5314 23.5025 10.2814 23.1884 10.0203 22.8611C9.27552 21.9271 8.43118 20.8682 8.02716 18.9577C7.96067 18.6441 7.60339 18.4351 7.22901 18.4906C6.85464 18.5461 6.60496 18.8454 6.67145 19.1591C7.12594 21.3078 8.09606 22.5244 8.87525 23.5019C8.99514 23.6522 9.1089 23.795 9.21411 23.933C8.83653 24.0715 8.53906 24.3353 8.397 24.6617L3.94161 26.0043C3.66844 26.0868 3.48633 26.3038 3.48633 26.5472C3.48633 26.7904 3.66844 27.0077 3.94161 27.09L8.397 28.4326C8.60848 28.919 9.16577 29.2671 9.81813 29.2671H25.2503C25.9026 29.2671 26.4599 28.919 26.6714 28.4326L31.1268 27.09C31.4 27.0077 31.5821 26.7904 31.5821 26.5472C31.5821 26.3038 31.4 26.0868 31.1268 26.0045ZM13.8027 15.2289C12.8337 15.2289 12.0454 14.5678 12.0454 13.7552V9.45113C12.0454 8.45375 12.928 8.00742 13.8027 8.00742C14.6775 8.00742 15.5601 8.45375 15.5601 9.45113V13.625C15.5499 13.7069 15.5446 13.7901 15.5446 13.874C15.5446 13.8948 15.5456 13.9156 15.5464 13.9364C15.4394 14.6638 14.6986 15.2289 13.8027 15.2289ZM16.9369 11.8596V9.45113C16.9369 8.41191 17.8333 7.94701 18.7217 7.94701C19.1866 7.94701 19.613 8.07699 19.9225 8.31303C20.2737 8.58083 20.4515 8.96385 20.4515 9.45113V11.4627H18.8531C18.1201 11.4627 17.4696 11.5989 16.9369 11.8596ZM23.8569 11.4627H21.8283V2.56995C21.8283 1.75737 22.6166 1.09626 23.5859 1.09626C24.5547 1.09626 25.3432 1.75737 25.3432 2.56995V11.7405C24.9285 11.5875 24.4497 11.4893 23.8951 11.4633C23.8826 11.4629 23.8697 11.4627 23.8569 11.4627ZM8.30621 25.915V27.1793L6.20896 26.5472L8.30621 25.915ZM25.3857 27.9997C25.3857 28.0614 25.3237 28.1136 25.2506 28.1136H9.81839C9.74496 28.1136 9.68301 28.0614 9.68301 27.9997V25.0946C9.68301 25.0331 9.74496 24.9809 9.81839 24.9809H10.3063H10.3089H10.3129H25.2503C25.3237 24.9809 25.3857 25.0328 25.3857 25.0946V27.9997ZM26.7625 27.1793V25.915L28.86 26.5472L26.7625 27.1793Z" fill="url(#paint4_linear)"/>
<path d="M7.10686 16.8162C7.48711 16.8162 7.79526 16.5581 7.79526 16.2395V16.2296C7.79526 15.9113 7.48711 15.6529 7.10686 15.6529C6.72688 15.6529 6.41846 15.9113 6.41846 16.2296V16.2395C6.41846 16.5581 6.72688 16.8162 7.10686 16.8162Z" fill="url(#paint5_linear)"/>
</g>
<defs>
<linearGradient id="paint0_linear" x1="111.5" y1="4" x2="111.5" y2="28" gradientUnits="userSpaceOnUse">
<stop stop-color="white"/>
<stop offset="1" stop-color="white" stop-opacity="0.26"/>
</linearGradient>
<linearGradient id="paint1_linear" x1="13.6099" y1="25.9705" x2="13.6099" y2="27.124" gradientUnits="userSpaceOnUse">
<stop stop-color="white"/>
<stop offset="1" stop-color="white" stop-opacity="0.29"/>
</linearGradient>
<linearGradient id="paint2_linear" x1="17.548" y1="25.9705" x2="17.548" y2="27.124" gradientUnits="userSpaceOnUse">
<stop stop-color="white"/>
<stop offset="1" stop-color="white" stop-opacity="0.29"/>
</linearGradient>
<linearGradient id="paint3_linear" x1="21.484" y1="25.9492" x2="21.484" y2="27.103" gradientUnits="userSpaceOnUse">
<stop stop-color="white"/>
<stop offset="1" stop-color="white" stop-opacity="0.29"/>
</linearGradient>
<linearGradient id="paint4_linear" x1="17.5342" y1="-0.0572815" x2="17.5342" y2="29.2671" gradientUnits="userSpaceOnUse">
<stop stop-color="white"/>
<stop offset="1" stop-color="white" stop-opacity="0.29"/>
</linearGradient>
<linearGradient id="paint5_linear" x1="7.10686" y1="15.6529" x2="7.10686" y2="16.8162" gradientUnits="userSpaceOnUse">
<stop stop-color="white"/>
<stop offset="1" stop-color="white" stop-opacity="0.29"/>
</linearGradient>
<clipPath id="clip0">
<rect width="35" height="29.3243" fill="white"/>
</clipPath>
</defs>
</svg>
